# xmcd
#
# Track frame offsets:
#	150
#	14436
#	22730
#	33821
#	45219
#	58319
#	72285
#	82198
#	95509
#	108017
#	121252
#	135011
#	147353
#	162262
#	176444
#
# Disc length: 2571 seconds
# Revision: 0
# Processed by: cddbd v1.5.2PL0 Copyright (c) Steve Scherf et al.
# Submitted via: dBpowerAMP V12.0
#
DISCID=b40a090f
DTITLE=Elmore James - Hits and Rarities
DYEAR=2011
DGENRE=Blues
TTITLE0=Strange Angel
TTITLE1=She Done Moved
TTITLE2=Person To Person
TTITLE3=So Unkind
TTITLE4=My Kind Of Woman
TTITLE5=You Know You're Wrong
TTITLE6=Go Back Home Again
TTITLE7=My Baby's Gone
TTITLE8=Dust My Broom
TTITLE9=Find My Kind Of Woman
TTITLE10=Hand In Hand
TTITLE11=I've Got A Right To Love My Baby
TTITLE12=Pickin' The Blues
TTITLE13=Elmore Jumps One
TTITLE14=I Gotta Go Now
EXTD=
EXTT0=
EXTT1=
EXTT2=
EXTT3=
EXTT4=
EXTT5=
EXTT6=
EXTT7=
EXTT8=
EXTT9=
EXTT10=
EXTT11=
EXTT12=
EXTT13=
EXTT14=
PLAYORDER=
